<svg id="SvgjsSvg1001" width="288" height="288" xmlns="http://www.w3.org/2000/svg" version="1.1" xmlns:xlink="http://www.w3.org/1999/xlink" xmlns:svgjs="http://svgjs.com/svgjs"><defs id="SvgjsDefs1002"></defs><g id="SvgjsG1008" transform="matrix(1,0,0,1,0,0)"><svg xmlns="http://www.w3.org/2000/svg" enable-background="new 0 0 512 512" viewBox="0 0 512 512" width="288" height="288"><path d="M464.059,61.567c-63.811-63.814-167.646-63.814-231.468,0L34.183,259.974c-45.579,45.584-45.576,119.753,0.006,165.334
			c22.793,22.793,52.723,34.189,82.665,34.186c29.934-0.003,59.88-11.396,82.669-34.186l181.868-181.873
			c13.25-13.248,20.548-30.863,20.55-49.599c0-18.737-7.295-36.351-20.547-49.603c-27.352-27.349-71.856-27.348-99.202,0.005
			L163.257,263.17c-9.131,9.13-9.131,23.935-0.002,33.067c9.13,9.133,23.935,9.13,33.067,0l118.936-118.933
			c9.117-9.117,23.949-9.119,33.067-0.002c4.416,4.416,6.849,10.288,6.849,16.533c0,6.245-2.432,12.115-6.849,16.533L166.456,392.24
			c-27.351,27.348-71.851,27.352-99.2,0.002c-27.349-27.351-27.351-71.853-0.005-99.204L265.658,94.634
			c45.586-45.584,119.755-45.584,165.334,0c22.083,22.08,34.245,51.439,34.245,82.666s-12.163,60.586-34.245,82.668l-198.404,198.41
			c-9.13,9.131-9.13,23.935,0.002,33.067c4.566,4.567,10.55,6.848,16.533,6.848c5.984,0,11.968-2.284,16.534-6.848l198.401-198.409
			c30.916-30.913,47.941-72.015,47.942-115.735C512,133.582,494.974,92.48,464.059,61.567z" fill="#ffffff" class="color000 svgShape"></path></svg></g></svg>