<svg width="32" height="32" viewBox="0 0 32 32" fill="none" xmlns="http://www.w3.org/2000/svg">
<circle cx="16" cy="16" r="14" fill="#105DFB"/>
<path fill-rule="evenodd" clip-rule="evenodd" d="M6.87595 21.9595V9.74347H12.5232C14.3371 9.74347 15.8076 11.2139 15.8076 13.0278C15.8076 14.1805 15.4532 14.8945 14.1536 15.627C15.7087 16.3356 16.1406 17.3177 16.1406 18.6875C16.1406 20.5406 14.4944 21.9595 12.6413 21.9595H6.87595ZM9.26562 11.7656V14.7031H12.0625C12.0625 14.7031 13.4219 14.7031 13.4219 13.2344C13.4219 11.7656 12.0625 11.7656 12.0625 11.7656H9.26562ZM9.26562 19.8906V16.7188H12.2656C12.75 16.7188 13.7656 16.9688 13.7656 18.4688C13.7656 19.5813 12.7656 19.8802 12.2656 19.8906H9.26562Z" fill="white"/>
<path fill-rule="evenodd" clip-rule="evenodd" d="M21.25 13.1094C19.5312 13.1094 16.9844 14.3438 16.9844 17.625C16.9844 19.623 18.0781 22.1875 21.3594 22.1875C23.9844 22.1875 25.1927 20.2604 25.4688 19.2969H23C22.875 19.7344 22.3906 20.2188 21.3594 20.2188C19.8594 20.2188 19.3281 18.9375 19.25 18.2969H25.4688V17.625C25.4688 14.3438 22.9688 13.1094 21.25 13.1094ZM21.25 14.9844C19.85 14.9844 19.3333 16.1406 19.25 16.7188H23C23 16.1406 22.65 14.9844 21.25 14.9844Z" fill="white"/>
<path d="M18.2656 10.4375V11.9531H24.1562V10.4375H18.2656Z" fill="white"/>
</svg>
