<svg width="11" height="11" viewBox="0 0 11 11" fill="none" xmlns="http://www.w3.org/2000/svg">
<path d="M5.05371 1.01074C2.63871 1.01074 0.673828 2.9754 0.673828 5.39012C0.673828 7.80484 2.63871 9.76949 5.05371 9.76949C7.46871 9.76949 9.43359 7.80484 9.43359 5.39012C9.43359 2.9754 7.46871 1.01074 5.05371 1.01074ZM5.05371 1.68449C7.10417 1.68449 8.75977 3.3399 8.75977 5.39012C8.75977 7.44034 7.10417 9.09574 5.05371 9.09574C3.00325 9.09574 1.34766 7.44034 1.34766 5.39012C1.34766 3.3399 3.00325 1.68449 5.05371 1.68449ZM5.02204 3.36887C3.90214 3.36887 3.00056 4.27034 3.00056 5.39012C3.00056 6.50989 3.90214 7.41137 5.02204 7.41137C5.8303 7.41137 6.52131 6.92694 6.8434 6.24275L6.23291 5.95876C6.0156 6.42028 5.56178 6.73762 5.02204 6.73762C4.25489 6.73762 3.67438 6.15718 3.67438 5.39012C3.67438 4.62305 4.25489 4.04262 5.02204 4.04262C5.56178 4.04262 6.01594 4.35962 6.23291 4.82181L6.84374 4.53749C6.52097 3.85329 5.8303 3.36887 5.0217 3.36887H5.02204Z" fill="black"/>
</svg>
