<svg width="35" height="35" viewBox="0 0 35 35" fill="none" xmlns="http://www.w3.org/2000/svg">
<path d="M5.83325 8.74996C5.83325 8.36319 5.9869 7.99225 6.26039 7.71876C6.53388 7.44527 6.90481 7.29163 7.29159 7.29163H27.7083C28.095 7.29163 28.466 7.44527 28.7394 7.71876C29.0129 7.99225 29.1666 8.36319 29.1666 8.74996C29.1666 9.13673 29.0129 9.50767 28.7394 9.78116C28.466 10.0546 28.095 10.2083 27.7083 10.2083H7.29159C6.90481 10.2083 6.53388 10.0546 6.26039 9.78116C5.9869 9.50767 5.83325 9.13673 5.83325 8.74996Z" fill="black"/>
<path d="M5.83325 26.25C5.83325 25.8632 5.9869 25.4923 6.26039 25.2188C6.53388 24.9453 6.90481 24.7916 7.29159 24.7916H27.7083C28.095 24.7916 28.466 24.9453 28.7394 25.2188C29.0129 25.4923 29.1666 25.8632 29.1666 26.25C29.1666 26.6367 29.0129 27.0077 28.7394 27.2812C28.466 27.5546 28.095 27.7083 27.7083 27.7083H7.29159C6.90481 27.7083 6.53388 27.5546 6.26039 27.2812C5.9869 27.0077 5.83325 26.6367 5.83325 26.25Z" fill="black"/>
<path d="M16.0416 16.0416C15.6548 16.0416 15.2839 16.1953 15.0104 16.4688C14.7369 16.7423 14.5833 17.1132 14.5833 17.5C14.5833 17.8867 14.7369 18.2577 15.0104 18.5312C15.2839 18.8046 15.6548 18.9583 16.0416 18.9583H27.7083C28.095 18.9583 28.466 18.8046 28.7394 18.5312C29.0129 18.2577 29.1666 17.8867 29.1666 17.5C29.1666 17.1132 29.0129 16.7423 28.7394 16.4688C28.466 16.1953 28.095 16.0416 27.7083 16.0416H16.0416Z" fill="black"/>
</svg>
